<?xml version="1.0" encoding="utf-8"?>
<!-- Generator: Adobe Illustrator 22.0.1, SVG Export Plug-In . SVG Version: 6.00 Build 0)  -->
<svg version="1.1" id="Capa_1" xmlns="http://www.w3.org/2000/svg" xmlns:xlink="http://www.w3.org/1999/xlink" x="0px" y="0px"
	 viewBox="0 0 512 512" style="enable-background:new 0 0 512 512;" xml:space="preserve">
<style type="text/css">
	.st0{fill:#9CA6F4;}
</style>
<g>
	<path class="st0" d="M272.9,6.7c-13.8-9.1-31.8-8.9-45.4,0.5L24,149c-10.8,7.6-17.3,19.9-17.3,33.2v152.7
		c0,13.6,6.8,26.2,18.1,33.7l206.8,136.7c13.5,8.9,31.1,8.9,44.6,0L487.1,366c11.3-7.5,18.1-20.1,18.1-33.7v-150
		c0-13.6-6.8-26.2-18.1-33.7L272.9,6.7z M430.4,172.1l-78,52.3l-73.1-53.2l-0.5-104.6L430.4,172.1z M226,66.8v102.3l-74.9,52.4
		l-74.7-50.1L226,66.8z M55.9,221.9l48.4,32.4l-48.4,33.8V221.9z M227.3,440L76.4,338.9l75.4-52.7l75.5,50.7V440L227.3,440z
		 M198.7,253.4l48.8-34.2l56.9,37.4L254,290.5L198.7,253.4z M280.6,440V336.8l72.2-48.4l77.7,51.1L280.6,440z M452,289.9l-51.2-33.7
		l51.2-34.4V289.9z"/>
</g>
</svg>
